<?xml version="1.0" encoding="utf-8"?>
<!-- Generator: Adobe Illustrator 16.0.0, SVG Export Plug-In . SVG Version: 6.00 Build 0)  -->
<!DOCTYPE svg PUBLIC "-//W3C//DTD SVG 1.1//EN" "http://www.w3.org/Graphics/SVG/1.1/DTD/svg11.dtd">
<svg version="1.1" id="Calque_1" xmlns="http://www.w3.org/2000/svg" xmlns:xlink="http://www.w3.org/1999/xlink" x="0px" y="0px"
	 width="20px" height="20px" viewBox="0 0 20 20" enable-background="new 0 0 20 20" xml:space="preserve">
<g>
	<g transform="translate(-55.000000, -304.000000)">
		<g transform="translate(55.000000, 303.000000)">
			<path fill="#6F7A8B" stroke="#6F7A8B" stroke-miterlimit="10" d="M6.162,15.062l-0.183-2.74c-0.02-0.284-0.266-0.5-0.549-0.481
				c-0.285,0.02-0.5,0.266-0.481,0.551l0.258,3.871c0.03,0.441,0.566,0.644,0.88,0.331l2.322-2.324c0.202-0.2,0.202-0.528,0-0.73
				c-0.201-0.201-0.528-0.201-0.729,0L6.162,15.062z"/>
			<path fill="#6F7A8B" stroke="#6F7A8B" stroke-miterlimit="10" d="M6.663,12.234c-0.21,0.193-0.223,0.52-0.03,0.729
				c0.193,0.209,0.52,0.222,0.729,0.029l3.355-3.098c0.209-0.193,0.223-0.52,0.028-0.729c-0.192-0.21-0.519-0.223-0.729-0.029
				L6.663,12.234z"/>
			<path fill="#6F7A8B" stroke="#6F7A8B" stroke-miterlimit="10" d="M10.438,14.716l-6.738-4.354l11.729-5.43L10.438,14.716z
				 M16.346,3.37L2.407,9.822c-0.369,0.171-0.404,0.682-0.063,0.902l8.001,5.163c0.258,0.165,0.602,0.073,0.74-0.198l5.937-11.616
				C17.244,3.635,16.791,3.163,16.346,3.37z"/>
		</g>
	</g>
</g>
</svg>
