<?xml version="1.0" encoding="utf-8"?>
<!-- Generator: Adobe Illustrator 16.0.0, SVG Export Plug-In . SVG Version: 6.00 Build 0)  -->
<!DOCTYPE svg PUBLIC "-//W3C//DTD SVG 1.1//EN" "http://www.w3.org/Graphics/SVG/1.1/DTD/svg11.dtd">
<svg version="1.1" id="Calque_1" xmlns="http://www.w3.org/2000/svg" xmlns:xlink="http://www.w3.org/1999/xlink" x="0px" y="0px"
	 width="20px" height="20px" viewBox="0 0 20 20" enable-background="new 0 0 20 20" xml:space="preserve">
<g>
	<g>
		<g>
			<g>
				<path fill="#FFFFFF" d="M15.6,9.089H4.399c-0.168,0-0.305-0.136-0.305-0.306c0-0.168,0.137-0.305,0.305-0.305H15.6
					c0.168,0,0.308,0.137,0.308,0.305C15.906,8.954,15.768,9.089,15.6,9.089z"/>
			</g>
			<g>
				<path fill="#FFFFFF" d="M15.6,11.354H4.399c-0.168,0-0.305-0.137-0.305-0.305c0-0.169,0.137-0.306,0.305-0.306H15.6
					c0.168,0,0.308,0.137,0.308,0.306C15.906,11.218,15.768,11.354,15.6,11.354z"/>
			</g>
			<g>
				<path fill="#FFFFFF" d="M15.6,13.621H4.399c-0.168,0-0.305-0.139-0.305-0.307S4.23,13.01,4.399,13.01H15.6
					c0.168,0,0.308,0.137,0.308,0.305S15.768,13.621,15.6,13.621z"/>
			</g>
			<g>
				<path fill="#FFFFFF" d="M15.6,15.887H4.399c-0.168,0-0.305-0.137-0.305-0.307c0-0.169,0.137-0.305,0.305-0.305H15.6
					c0.168,0,0.308,0.136,0.308,0.305C15.906,15.75,15.768,15.887,15.6,15.887z"/>
			</g>
			<g>
				<path fill="#FFFFFF" d="M15.6,18.152H4.399c-0.168,0-0.305-0.139-0.305-0.307c0-0.17,0.137-0.306,0.305-0.306H15.6
					c0.168,0,0.308,0.136,0.308,0.306C15.906,18.014,15.768,18.152,15.6,18.152z"/>
			</g>
		</g>
		<path fill="#FFFFFF" d="M17.357,3.199l-3.006-3.005c-0.113-0.114-0.269-0.178-0.429-0.178L3.483,0.027
			c-0.562,0-1.018,0.457-1.018,1.019v17.919c0,0.563,0.456,1.02,1.018,1.02h13.033c0.563,0,1.021-0.457,1.021-1.02V3.625
			C17.535,3.465,17.471,3.312,17.357,3.199z M16.924,18.966c0,0.224-0.184,0.408-0.408,0.408H3.483
			c-0.224,0-0.407-0.185-0.407-0.408V1.046c0-0.224,0.183-0.408,0.407-0.408h10.166c0.064,0,0.119,0.053,0.119,0.118V2.98
			c0,0.45,0.363,0.815,0.814,0.815h2.223c0.066,0,0.117,0.053,0.117,0.119v15.052H16.924z"/>
	</g>
</g>
<circle fill="#FFFFFF" cx="6.475" cy="3.084" r="1.154"/>
<path fill="#FFFFFF" d="M4.296,6.772c0-1.321,0.976-2.396,2.169-2.396c1.193,0,2.169,1.075,2.169,2.396H4.296z"/>
</svg>
