<?xml version="1.0" encoding="utf-8"?>
<!-- Generator: Adobe Illustrator 16.0.0, SVG Export Plug-In . SVG Version: 6.00 Build 0)  -->
<!DOCTYPE svg PUBLIC "-//W3C//DTD SVG 1.1//EN" "http://www.w3.org/Graphics/SVG/1.1/DTD/svg11.dtd">
<svg version="1.1" id="Calque_1" xmlns="http://www.w3.org/2000/svg" xmlns:xlink="http://www.w3.org/1999/xlink" x="0px" y="0px"
	 width="20px" height="20px" viewBox="0 0 20 20" enable-background="new 0 0 20 20" xml:space="preserve">
<path fill="#6F7A8B" stroke="#6F7A8B" stroke-width="0.5" stroke-miterlimit="10" d="M17.709,10c0-1.167-0.262-2.273-0.729-3.266
	c-0.004-0.005-0.002-0.011-0.004-0.016c-0.217-0.46-0.481-0.9-0.783-1.307c-0.004-0.007-0.01-0.01-0.014-0.016
	C14.773,3.512,12.525,2.291,10,2.291c-2.338,0-4.434,1.047-5.849,2.695C4.143,4.993,4.133,4.999,4.125,5.007
	c-0.264,0.312-0.501,0.644-0.711,0.99c-0.004,0.005-0.006,0.01-0.01,0.015C3.348,6.105,3.294,6.2,3.242,6.295
	c-0.009,0.017-0.02,0.034-0.029,0.051C3.168,6.428,3.126,6.512,3.085,6.595c-0.014,0.03-0.029,0.058-0.043,0.088
	C3.01,6.751,2.979,6.821,2.948,6.89c-0.02,0.044-0.04,0.087-0.059,0.132c-0.011,0.027-0.02,0.053-0.031,0.081
	c-0.073,0.18-0.141,0.362-0.2,0.548C2.657,7.654,2.656,7.657,2.655,7.66C2.626,7.748,2.601,7.837,2.576,7.926
	C2.569,7.95,2.563,7.975,2.555,8C2.534,8.082,2.514,8.164,2.494,8.248c-0.007,0.033-0.016,0.067-0.023,0.1
	C2.454,8.425,2.439,8.502,2.424,8.581C2.417,8.623,2.408,8.665,2.401,8.707C2.389,8.779,2.377,8.85,2.368,8.922
	c-0.007,0.054-0.015,0.106-0.02,0.16C2.34,9.145,2.333,9.209,2.326,9.272C2.319,9.342,2.315,9.411,2.31,9.481
	c-0.003,0.05-0.008,0.1-0.009,0.151C2.293,9.754,2.291,9.877,2.291,10c0,0.153,0.005,0.304,0.014,0.455
	c0.003,0.046,0.007,0.093,0.012,0.138c0.007,0.104,0.018,0.208,0.03,0.312c0.003,0.029,0.004,0.059,0.007,0.087
	c0.001,0.005,0.004,0.008,0.005,0.014c0.213,1.626,0.933,3.095,1.998,4.239c0.005,0.008,0.008,0.018,0.014,0.023
	c0.058,0.062,0.12,0.121,0.18,0.183c0,0,0,0,0.001,0.002c0.153,0.151,0.309,0.3,0.471,0.437c0.007,0.006,0.015,0.008,0.022,0.012
	c1.341,1.129,3.07,1.812,4.956,1.812c2.481,0,4.69-1.179,6.103-3.004c0.004-0.006,0.013-0.008,0.016-0.015
	c0.303-0.394,0.568-0.819,0.79-1.262c0.004-0.01,0.005-0.019,0.007-0.024C17.422,12.378,17.709,11.223,17.709,10z M15.807,7.869
	c0.014,0.086,0.067,0.137,0.137,0.201c0.197,0.183,0.396,0.405,0.269,0.736c-0.021,0.057-0.101,0.092-0.226,0.144
	c-0.146,0.06-0.328,0.134-0.412,0.323c-0.092,0.211-0.016,0.413,0.046,0.575c0.03,0.077,0.063,0.163,0.058,0.205
	c-0.025,0.186-0.125,0.325-0.21,0.394c-0.021,0.016-0.032,0.02-0.077,0.02l-0.059-0.001c-0.057,0-0.121,0.004-0.189,0.034
	c-0.254,0.111-0.281,0.277-0.254,0.406c0.002,0.101-0.031,0.326-0.08,0.438c-0.014-0.029-0.026-0.064-0.041-0.102
	c-0.043-0.113-0.104-0.27-0.205-0.486c-0.035-0.076-0.146-0.309-0.394-0.309c-0.121,0-0.229,0.06-0.34,0.125
	c-0.203,0.123-0.284,0.326-0.347,0.477c-0.017,0.04-0.039,0.098-0.057,0.127c-0.044-0.033-0.078-0.193-0.093-0.267
	c-0.021-0.087-0.036-0.171-0.071-0.237c-0.094-0.176-0.197-0.323-0.508-0.365c-0.236-0.033-0.459,0.178-0.666,0.38
	c-0.082,0.08-0.165,0.16-0.229,0.201c-0.074,0.051-0.127,0.092-0.164,0.12c-0.004,0.003-0.008,0.007-0.014,0.011
	c-0.017-0.024-0.037-0.058-0.053-0.082c-0.086-0.142-0.205-0.334-0.422-0.416c-0.219-0.082-0.45-0.021-0.584,0.15
	c-0.111,0.145-0.145,0.344-0.09,0.551c0.093,0.363,0.263,0.703,0.492,0.979c0.084,0.102,0.127,0.447-0.526,1.624l-0.055,0.1
	c-0.11,0.197-0.221,0.403-0.339,0.487l-0.055,0.04c-0.034,0.024-0.084,0.063-0.108,0.071c-0.005-0.002-0.028-0.012-0.066-0.049
	c-0.149-0.131-0.292-0.617-0.316-0.871c-0.005-0.066-0.008-0.123-0.012-0.172c-0.01-0.135-0.016-0.221-0.042-0.326
	c-0.007-0.035-0.023-0.08-0.038-0.127c-0.031-0.088-0.072-0.207-0.051-0.279c0.028-0.096,0.11-0.387-0.042-0.59
	C9.32,12.038,9.213,11.95,9.023,11.95c-0.022,0-0.045,0.001-0.068,0.003c-0.045,0.004-0.104,0.02-0.198,0.042
	c-0.063,0.017-0.136,0.034-0.192,0.043c-0.033,0.006-0.069,0.013-0.102,0.021c-0.059,0.012-0.118,0.025-0.161,0.029
	c-0.079-0.035-0.341-0.281-0.379-0.35c-0.04-0.112-0.038-0.273,0.005-0.391c0.019-0.057,0.086-0.121,0.15-0.185
	c0.058-0.058,0.119-0.115,0.167-0.187c0.051-0.076,0.083-0.147,0.11-0.207c0.023-0.055,0.044-0.099,0.057-0.115
	c0.005-0.002,0.013-0.002,0.017-0.002c0.009,0,0.014,0,0.021,0c0.046,0,0.11,0,0.193-0.019c0.088-0.021,0.171-0.063,0.254-0.104
	c0.053-0.027,0.14-0.07,0.153-0.077c0,0.001,0.002,0.002,0.002,0.002l0,0l0.014,0.073c0.046,0.25,0.305,0.453,0.577,0.453
	c0.083,0,0.163-0.019,0.236-0.055c0.108-0.055,0.179-0.091,0.235-0.123c0.073-0.039,0.121-0.064,0.199-0.099
	c0.48-0.202,0.708-0.605,0.613-1.083c-0.1-0.491-0.519-0.905-0.915-0.905c-0.161,0-0.308,0.063-0.426,0.183
	c-0.2,0.208-0.009,0.453,0.105,0.599c0.036,0.043,0.095,0.121,0.125,0.18C9.701,9.606,9.527,9.442,9.461,9.379
	C9.322,9.247,9.265,9.192,9.149,9.192l0,0c-0.208,0.011-0.356,0.184-0.502,0.35C8.59,9.609,8.493,9.719,8.47,9.732
	c-0.053,0-0.1-0.082-0.103-0.104V9.596c-0.001-0.017-0.002-0.039,0-0.044c0,0,0.019-0.039,0.149-0.114
	c0.243-0.141,0.141-0.415,0.095-0.532C8.604,8.886,8.594,8.86,8.586,8.837c0.073-0.013,0.19-0.021,0.274-0.026
	c0.148-0.01,0.302-0.019,0.435-0.054c0.513-0.134,0.728-0.381,0.903-0.58c0.042-0.048,0.082-0.095,0.128-0.137
	c0.146-0.136,0.188-0.321,0.114-0.506c-0.098-0.245-0.412-0.476-0.644-0.476c-0.008,0-0.026,0.001-0.032,0.002
	c-0.477,0.042-0.609,0.4-0.681,0.593c-0.014,0.033-0.03,0.075-0.042,0.103c-0.078-0.04-0.067-0.195-0.062-0.245
	C9.016,7.17,9.326,6.692,9.815,6.729c0.133,0.008,0.309,0.145,0.448,0.254c0.161,0.125,0.287,0.224,0.434,0.224
	c0.076,0,0.146-0.029,0.199-0.082c0.149-0.144,0.131-0.353,0.117-0.521c-0.009-0.084-0.019-0.189,0.004-0.232
	c0.045-0.099,0.119-0.209,0.185-0.29c-0.005,0.073-0.021,0.154-0.03,0.219c-0.021,0.116-0.039,0.227-0.031,0.326
	c0.023,0.366,0.561,0.6,0.83,0.443c0.16-0.092,0.188-0.295,0.213-0.5c0.08,0.033,0.162,0.049,0.239,0.049
	c0.474,0,0.599-0.564,0.679-0.937c0.017-0.077,0.041-0.182,0.063-0.252c0.084,0.064,0.198,0.226,0.271,0.323
	c0.078,0.112,0.152,0.219,0.236,0.298c0.088,0.081,0.213,0.091,0.313,0.091l0,0c0.385,0,1.205-0.192,1.863-0.347l0.088-0.021
	c0.024,0.036,0.051,0.071,0.073,0.106c0.052,0.074,0.099,0.147,0.146,0.222c0.057,0.09,0.111,0.18,0.166,0.271
	c0.047,0.082,0.092,0.165,0.137,0.249c0.02,0.037,0.036,0.073,0.057,0.11c-0.125,0.098-0.234,0.225-0.33,0.333
	c-0.033,0.041-0.065,0.076-0.093,0.104C15.881,7.389,15.775,7.65,15.807,7.869z M5.335,6.759c0.104,0.088,0.203,0.171,0.23,0.254
	c0.051,0.162,0.028,0.214,0.028,0.214C5.592,7.228,5.578,7.24,5.496,7.24C5.395,7.236,5.255,7.135,5.131,7.045
	c-0.14-0.101-0.284-0.207-0.442-0.232C3.973,6.688,3.613,7.625,3.575,7.798C3.511,8.094,3.642,8.405,3.873,8.504
	c0.049,0.021,0.104,0.032,0.162,0.032c0.189,0,0.387-0.113,0.578-0.221C4.705,8.262,4.801,8.208,4.857,8.19
	c0.128-0.037,0.346,0.107,0.489,0.317C5.46,8.673,5.478,8.802,5.457,8.853C5.435,8.87,5.333,8.87,5.273,8.871
	c-0.145,0-0.326,0.001-0.48,0.11C4.626,9.098,4.55,9.262,4.488,9.395C4.443,9.491,4.405,9.574,4.345,9.619
	C4.108,9.795,3.961,9.84,3.831,9.88C3.687,9.924,3.538,9.971,3.39,10.162c-0.156,0.204-0.143,0.384-0.104,0.501
	c0.154,0.462,0.974,0.721,1.872,0.969c0.083,0.024,0.16,0.044,0.226,0.063c0.001,0.019,0.002,0.035,0.002,0.049
	c0.008,0.156,0.019,0.369,0.188,0.474c0.105,0.064,0.251,0.089,0.418,0.117c0.154,0.028,0.442,0.079,0.479,0.162
	c0.099,0.215-0.484,0.892-0.764,1.216c-0.169,0.194-0.315,0.362-0.396,0.491c-0.19,0.305-0.275,0.737-0.32,1.086
	c-0.089-0.084-0.177-0.172-0.262-0.261c-0.001-0.162,0.018-0.391,0.039-0.627c0.039-0.445,0.079-0.904,0.016-1.207
	c-0.073-0.35-0.29-0.5-0.448-0.609c-0.094-0.066-0.148-0.104-0.165-0.158c-0.029-0.09-0.017-0.169-0.002-0.268
	c0.02-0.131,0.044-0.292-0.042-0.477c-0.118-0.252-0.388-0.365-0.701-0.496c-0.21-0.088-0.446-0.186-0.666-0.34
	c-0.002-0.017-0.004-0.035-0.006-0.052c-0.01-0.089-0.018-0.18-0.023-0.271c-0.004-0.041-0.007-0.083-0.01-0.125
	c-0.006-0.132-0.01-0.266-0.01-0.4c0-0.116,0.003-0.231,0.008-0.346c0.003-0.047,0.006-0.093,0.009-0.14
	c0.005-0.066,0.01-0.133,0.016-0.198c0.006-0.06,0.013-0.119,0.02-0.178c0.006-0.05,0.011-0.099,0.019-0.15
	c0.009-0.067,0.02-0.134,0.03-0.2c0.007-0.041,0.015-0.08,0.022-0.119C2.848,8.595,2.862,8.522,2.878,8.45
	c0.007-0.03,0.014-0.058,0.02-0.087c0.019-0.081,0.037-0.162,0.059-0.242C2.96,8.112,2.962,8.104,2.964,8.096
	c0.07-0.262,0.158-0.52,0.257-0.772c0.017-0.04,0.031-0.081,0.048-0.12C3.29,7.155,3.312,7.107,3.333,7.059
	C3.359,7,3.385,6.941,3.413,6.883c0.017-0.035,0.034-0.07,0.051-0.106C3.5,6.705,3.537,6.632,3.575,6.562
	C3.587,6.54,3.599,6.518,3.612,6.495C3.66,6.407,3.708,6.322,3.759,6.237c0.005-0.008,0.01-0.015,0.014-0.024
	c0.19-0.31,0.402-0.605,0.635-0.883C4.532,5.3,4.654,5.274,4.773,5.249C4.908,5.22,5.038,5.192,5.158,5.162
	C5.27,5.133,5.382,5.101,5.492,5.07c0.274-0.077,0.534-0.15,0.716-0.15c0,0,0.002,0,0.003,0c0.036,0,0.082,0.002,0.123,0.004
	c-0.08,0.074-0.31,0.199-0.467,0.285c-0.448,0.244-0.911,0.496-0.93,0.854C4.918,6.406,5.16,6.61,5.335,6.759z M3.773,12.561
	c0.062,0.188,0.201,0.285,0.326,0.371c0.132,0.094,0.236,0.166,0.275,0.354c0.051,0.24,0.011,0.688-0.022,1.084
	c-0.006,0.07-0.013,0.141-0.018,0.211c-0.737-0.911-1.259-2-1.489-3.193c0.148,0.076,0.293,0.137,0.421,0.189
	c0.232,0.097,0.433,0.182,0.482,0.285c0.031,0.066,0.023,0.127,0.006,0.236C3.737,12.223,3.713,12.374,3.773,12.561z M10,17.289
	c-1.753,0-3.363-0.621-4.622-1.656c0.031-0.32,0.09-0.885,0.292-1.205c0.063-0.1,0.205-0.265,0.356-0.439
	c0.487-0.563,1.038-1.201,0.831-1.662c-0.131-0.286-0.498-0.352-0.793-0.401c-0.082-0.016-0.189-0.034-0.246-0.053
	c-0.007-0.038-0.01-0.104-0.013-0.146c-0.007-0.146-0.016-0.344-0.203-0.402c-0.086-0.027-0.202-0.059-0.334-0.096
	c-0.445-0.123-1.489-0.408-1.584-0.695c-0.005-0.016-0.015-0.045,0.038-0.113c0.066-0.087,0.111-0.1,0.232-0.137
	c0.146-0.044,0.347-0.107,0.641-0.327C4.74,9.848,4.808,9.702,4.868,9.573c0.05-0.105,0.092-0.196,0.167-0.249
	C5.082,9.29,5.18,9.29,5.275,9.29c0.175,0,0.464-0.002,0.579-0.294c0.077-0.2,0.019-0.465-0.16-0.727
	C5.525,8.025,5.229,7.765,4.901,7.765c-0.056,0-0.111,0.007-0.164,0.023C4.635,7.818,4.522,7.882,4.404,7.95
	C4.288,8.016,4.112,8.116,4.038,8.118C4.01,8.105,3.961,8.002,3.985,7.887c0.024-0.112,0.262-0.666,0.579-0.666
	c0.018,0,0.036,0.002,0.054,0.004c0.062,0.011,0.171,0.09,0.268,0.16C5.056,7.51,5.252,7.651,5.48,7.659L5.514,7.66
	c0.233,0,0.356-0.1,0.417-0.183c0.102-0.141,0.114-0.339,0.034-0.591c-0.064-0.199-0.22-0.331-0.359-0.448
	c-0.159-0.136-0.257-0.225-0.25-0.35c0.006-0.126,0.5-0.395,0.71-0.51c0.355-0.192,0.574-0.317,0.66-0.48
	c0.031-0.06,0.127-0.241,0.03-0.408C6.652,4.513,6.434,4.506,6.216,4.5c-0.002,0-0.024,0-0.025,0c-0.222,0-0.509,0.081-0.812,0.166
	C5.271,4.697,5.163,4.728,5.053,4.755C5.007,4.767,4.959,4.778,4.911,4.789C6.227,3.504,8.021,2.711,10,2.711
	c2.279,0,4.316,1.053,5.656,2.696c-0.594,0.14-1.354,0.313-1.676,0.313l0,0c-0.021,0-0.037,0-0.047-0.002
	c-0.05-0.053-0.104-0.133-0.16-0.21c-0.176-0.246-0.373-0.526-0.69-0.526c0,0,0,0-0.002,0c-0.261,0.01-0.325,0.301-0.392,0.61
	C12.641,5.819,12.561,6.2,12.42,6.2c-0.029,0-0.104-0.013-0.232-0.101c-0.045-0.029-0.092-0.044-0.142-0.044
	c-0.233,0-0.26,0.253-0.28,0.437c-0.006,0.057-0.016,0.153-0.029,0.21c-0.077-0.011-0.17-0.071-0.18-0.103
	c-0.002-0.049,0.014-0.138,0.027-0.225c0.039-0.219,0.082-0.468-0.039-0.666c-0.059-0.096-0.152-0.152-0.261-0.152
	c-0.345,0-0.646,0.633-0.647,0.639c-0.066,0.145-0.055,0.306-0.041,0.447c0.002,0.021,0.002,0.046,0.006,0.071
	c-0.026-0.02-0.056-0.042-0.08-0.061c-0.187-0.145-0.417-0.324-0.677-0.343c-0.707-0.048-1.22,0.577-1.283,1.156
	c-0.04,0.366,0.12,0.644,0.409,0.709c0.034,0.007,0.067,0.011,0.098,0.011c0.265,0,0.351-0.231,0.407-0.385
	C9.55,7.601,9.597,7.497,9.791,7.48c0.061,0.005,0.224,0.118,0.257,0.215c0.007,0.017,0.008,0.021-0.012,0.04
	c-0.053,0.05-0.103,0.106-0.155,0.166c-0.15,0.172-0.306,0.349-0.693,0.45C9.095,8.375,8.962,8.383,8.833,8.392
	C8.549,8.41,8.28,8.426,8.185,8.636c-0.07,0.149-0.009,0.305,0.034,0.419c0.005,0.018,0.015,0.039,0.021,0.06
	c-0.249,0.16-0.297,0.303-0.293,0.49l0.001,0.024c0,0.215,0.204,0.524,0.522,0.524c0.203,0,0.353-0.169,0.494-0.334
	C9.01,9.764,9.08,9.683,9.126,9.64c0.013,0.014,0.028,0.028,0.046,0.043C9.428,9.928,9.66,10.13,9.891,10.13
	c0.112,0,0.212-0.049,0.278-0.139c0.218-0.287-0.013-0.579-0.148-0.753C10,9.212,9.973,9.178,9.952,9.149
	c0.177-0.071,0.493,0.204,0.563,0.556c0.039,0.193,0.008,0.457-0.364,0.613c-0.093,0.039-0.148,0.068-0.236,0.115
	c-0.054,0.03-0.124,0.066-0.225,0.118c-0.078,0.04-0.2-0.045-0.21-0.099l-0.01-0.066c-0.034-0.197-0.084-0.259-0.277-0.329
	c-0.155-0.055-0.341,0.025-0.487,0.099c-0.054,0.029-0.115,0.061-0.149,0.068c-0.04,0.008-0.071,0.008-0.106,0.008
	c-0.077,0-0.192,0-0.31,0.107c-0.085,0.078-0.129,0.175-0.168,0.259c-0.021,0.051-0.043,0.098-0.073,0.141
	c-0.024,0.037-0.068,0.078-0.114,0.125c-0.092,0.091-0.197,0.193-0.251,0.339c-0.074,0.206-0.079,0.469-0.008,0.673
	c0.057,0.168,0.484,0.577,0.673,0.617c0.109,0.021,0.236,0,0.35-0.021c0.027-0.007,0.057-0.014,0.087-0.02
	c0.063-0.012,0.147-0.03,0.222-0.049c0.058-0.014,0.11-0.027,0.139-0.031c0.008,0,0.018,0,0.026,0c0.008,0,0.014,0,0.017,0
	c0.005,0.021,0.01,0.081-0.027,0.217c-0.057,0.191,0.01,0.385,0.058,0.525c0.011,0.033,0.021,0.064,0.028,0.09
	c0.016,0.072,0.021,0.139,0.03,0.257c0.004,0.05,0.007,0.108,0.014,0.181c0.018,0.215,0.159,0.889,0.453,1.15
	c0.116,0.104,0.229,0.152,0.347,0.152c0.152,0,0.263-0.082,0.36-0.155l0.048-0.037c0.192-0.138,0.329-0.385,0.461-0.626l0.055-0.098
	c0.441-0.791,0.844-1.66,0.48-2.096c-0.189-0.227-0.33-0.509-0.41-0.815c-0.021-0.091-0.006-0.156,0.02-0.188
	c0.021-0.029,0.057-0.031,0.102-0.015c0.084,0.03,0.151,0.146,0.215,0.243c0.082,0.131,0.172,0.277,0.346,0.291
	c0.021,0.002,0.037,0.003,0.054,0.003c0.142,0,0.214-0.058,0.282-0.112c0.031-0.023,0.072-0.059,0.139-0.1
	c0.096-0.063,0.189-0.155,0.288-0.254c0.091-0.088,0.259-0.254,0.316-0.264c0.122,0.018,0.129,0.029,0.192,0.146
	c0.006,0.021,0.021,0.083,0.029,0.129c0.043,0.198,0.121,0.563,0.469,0.604c0.311,0.037,0.414-0.228,0.482-0.395
	c0.047-0.116,0.09-0.225,0.172-0.273c0.048-0.029,0.083-0.048,0.104-0.059c0.01,0.014,0.02,0.031,0.031,0.061
	c0.098,0.203,0.153,0.352,0.194,0.459c0.073,0.193,0.13,0.334,0.306,0.394c0.159,0.052,0.321,0.002,0.428-0.136
	c0.16-0.203,0.203-0.596,0.197-0.764c0.002,0,0.008-0.003,0.026-0.003l0.058,0.003c0.094,0,0.217-0.016,0.342-0.113
	c0.191-0.157,0.328-0.403,0.361-0.665c0.021-0.148-0.031-0.288-0.078-0.411c-0.039-0.1-0.076-0.204-0.054-0.258
	c0.015-0.032,0.11-0.073,0.185-0.102c0.156-0.064,0.373-0.151,0.461-0.384c0.235-0.622-0.209-1.037-0.375-1.192
	c-0.002-0.002-0.004-0.004-0.006-0.005c0.012-0.076,0.065-0.188,0.17-0.299c0.031-0.032,0.067-0.073,0.106-0.118
	c0.056-0.065,0.127-0.144,0.199-0.213C17.079,8.009,17.29,8.98,17.29,10c0,0.984-0.197,1.922-0.552,2.779
	c-0.047-0.107-0.129-0.213-0.293-0.234c-0.262-0.033-0.525-0.023-0.695,0.03c-0.162,0.05-0.271,0.153-0.363,0.239
	c-0.031,0.028-0.064,0.058-0.096,0.082c-0.048,0.035-0.091,0.071-0.132,0.107c-0.062,0.053-0.113,0.098-0.177,0.135
	c-0.014,0.006-0.063,0.014-0.092,0.016c-0.115,0.017-0.31,0.043-0.418,0.236c-0.005,0.008-0.365,0.889,0.037,1.148
	c0.072,0.047,0.152,0.068,0.243,0.068c0.169,0,0.339-0.084,0.474-0.15c0.056-0.025,0.131-0.063,0.157-0.068l0.08-0.015
	c0.038-0.008,0.065-0.015,0.093-0.015c0,0,0.006,0,0.019,0.008c0.032,0.02,0.087,0.104,0.118,0.156
	c0.004,0.006,0.004,0.008,0.008,0.011C14.363,16.211,12.307,17.289,10,17.289z M16.425,13.439c-0.026,0.047-0.055,0.096-0.079,0.146
	c-0.082,0.14-0.166,0.276-0.257,0.413c-0.019,0.031-0.034,0.061-0.056,0.089c-0.021,0.03-0.045,0.062-0.064,0.093
	c-0.052-0.072-0.115-0.14-0.197-0.184c-0.131-0.068-0.239-0.063-0.388-0.034l-0.073,0.015c-0.086,0.016-0.174,0.061-0.268,0.104
	c-0.093,0.047-0.208,0.101-0.295,0.104c-0.03-0.115,0.044-0.476,0.093-0.594c0.015-0.008,0.071-0.017,0.104-0.021
	c0.072-0.01,0.16-0.021,0.244-0.068c0.1-0.055,0.172-0.118,0.242-0.18c0.036-0.028,0.071-0.059,0.111-0.09
	c0.044-0.033,0.087-0.072,0.129-0.112c0.068-0.063,0.133-0.125,0.202-0.146c0.062-0.019,0.153-0.029,0.261-0.029
	c0.088,0,0.164,0.007,0.225,0.014c0.008,0.025,0.014,0.064,0.02,0.094c0.016,0.084,0.034,0.178,0.083,0.27
	c0.003,0.01,0.007,0.017,0.013,0.023C16.458,13.377,16.441,13.408,16.425,13.439z"/>
</svg>
