<?xml version="1.0" encoding="utf-8"?>
<!-- Generator: Adobe Illustrator 16.0.0, SVG Export Plug-In . SVG Version: 6.00 Build 0)  -->
<!DOCTYPE svg PUBLIC "-//W3C//DTD SVG 1.1//EN" "http://www.w3.org/Graphics/SVG/1.1/DTD/svg11.dtd">
<svg version="1.1" id="Capa_1" xmlns="http://www.w3.org/2000/svg" xmlns:xlink="http://www.w3.org/1999/xlink" x="0px" y="0px"
	 width="430.117px" height="430.117px" viewBox="0 0 430.117 430.117" enable-background="new 0 0 430.117 430.117"
	 xml:space="preserve">
<g>
	<path id="LinkedIn__x28_alt_x29_" fill="#FFFFFF" d="M398.355,0H31.782C14.229,0,0.002,13.793,0.002,30.817v368.472
		c0,17.024,14.232,30.829,31.78,30.829h366.573c17.549,0,31.76-13.813,31.76-30.829V30.817C430.115,13.798,415.904,0,398.355,0z
		 M130.4,360.038H65.413V165.845H130.4V360.038z M97.913,139.315h-0.437c-21.793,0-35.92-14.903-35.92-33.563
		c0-19.035,14.542-33.535,36.767-33.535c22.227,0,35.899,14.496,36.331,33.535C134.654,124.415,120.555,139.315,97.913,139.315z
		 M364.659,360.038h-64.966v-103.9c0-26.107-9.413-43.921-32.907-43.921c-17.973,0-28.642,12.018-33.327,23.621
		c-1.735,4.144-2.166,9.939-2.166,15.728v108.469h-64.954c0,0,0.851-175.979,0-194.192h64.965v27.531
		c8.623-13.229,24.034-32.101,58.533-32.101c42.761,0,74.822,27.739,74.822,87.414V360.038L364.659,360.038z M230.883,193.99
		c0.111-0.183,0.267-0.401,0.421-0.614v0.614H230.883z"/>
</g>
</svg>
