<?xml version="1.0" encoding="utf-8"?>
<!-- Generator: Adobe Illustrator 16.0.0, SVG Export Plug-In . SVG Version: 6.00 Build 0)  -->
<!DOCTYPE svg PUBLIC "-//W3C//DTD SVG 1.1//EN" "http://www.w3.org/Graphics/SVG/1.1/DTD/svg11.dtd">
<svg version="1.1" id="Calque_1" xmlns="http://www.w3.org/2000/svg" xmlns:xlink="http://www.w3.org/1999/xlink" x="0px" y="0px"
	 width="20px" height="20px" viewBox="0 0 20 20" enable-background="new 0 0 20 20" xml:space="preserve">
<g transform="translate(0,-952.36218)">
	<path fill="#8A95A5" d="M9.993,952.368c-3.286,0-5.942,2.659-5.942,5.949c0,0.756,0.22,1.715,0.476,2.38L10,972.356l5.473-11.66
		c0.258-0.665,0.479-1.624,0.479-2.38C15.949,955.027,13.279,952.368,9.993,952.368z M9.993,955.224
		c1.708,0,3.101,1.382,3.101,3.093c0,1.711-1.393,3.093-3.101,3.093c-1.709,0-3.086-1.383-3.086-3.093
		C6.907,956.607,8.283,955.224,9.993,955.224z"/>
</g>
</svg>
