<?xml version="1.0" encoding="utf-8"?>
<!-- Generator: Adobe Illustrator 16.0.0, SVG Export Plug-In . SVG Version: 6.00 Build 0)  -->
<!DOCTYPE svg PUBLIC "-//W3C//DTD SVG 1.1//EN" "http://www.w3.org/Graphics/SVG/1.1/DTD/svg11.dtd">
<svg version="1.1" id="Calque_1" xmlns="http://www.w3.org/2000/svg" xmlns:xlink="http://www.w3.org/1999/xlink" x="0px" y="0px"
	 width="20px" height="20px" viewBox="0 0 20 20" enable-background="new 0 0 20 20" xml:space="preserve">
<path fill="#A0ACBF" d="M4.459,13.602c0.897,0,1.761-0.336,2.422-0.944l5.23,2.538c-0.646,1.888,0.357,3.943,2.244,4.591
	c1.889,0.649,3.942-0.354,4.59-2.244c0.65-1.888-0.354-3.94-2.243-4.588c-1.272-0.438-2.683-0.132-3.66,0.795l-5.199-2.522
	c0.311-0.849,0.289-1.782-0.061-2.613l5.125-2.49c1.378,1.444,3.663,1.5,5.108,0.124c1.443-1.377,1.5-3.663,0.125-5.108
	c-1.377-1.444-3.666-1.5-5.108-0.124c-0.978,0.93-1.354,2.326-0.979,3.621L6.739,7.218c-1.538-1.26-3.807-1.035-5.067,0.503
	c-1.261,1.539-1.035,3.806,0.503,5.067c0.644,0.524,1.451,0.815,2.283,0.815L4.459,13.602L4.459,13.602z M15.518,14.467
	c1.047,0,1.894,0.846,1.894,1.891s-0.847,1.894-1.894,1.894c-1.045,0-1.891-0.849-1.891-1.894l0,0
	c0.002-1.041,0.848-1.889,1.891-1.889V14.467z M15.518,1.75c1.047,0,1.894,0.847,1.894,1.892s-0.847,1.892-1.894,1.892
	c-1.045,0-1.891-0.847-1.891-1.892c0.002-1.044,0.848-1.889,1.891-1.889V1.75z M4.459,8.1c1.045,0,1.893,0.847,1.893,1.892
	c0,1.045-0.847,1.891-1.893,1.891c-1.044,0-1.891-0.846-1.891-1.891C2.569,8.947,3.415,8.101,4.459,8.1z"/>
</svg>
