<?xml version="1.0" encoding="utf-8"?>
<!-- Generator: Adobe Illustrator 16.0.0, SVG Export Plug-In . SVG Version: 6.00 Build 0)  -->
<!DOCTYPE svg PUBLIC "-//W3C//DTD SVG 1.1//EN" "http://www.w3.org/Graphics/SVG/1.1/DTD/svg11.dtd">
<svg version="1.1" id="Capa_1" xmlns="http://www.w3.org/2000/svg" xmlns:xlink="http://www.w3.org/1999/xlink" x="0px" y="0px"
	 width="449.955px" height="449.955px" viewBox="0 0 449.955 449.955" enable-background="new 0 0 449.955 449.955"
	 xml:space="preserve">
<g>
	<path fill="#FFFFFF" d="M449.955,85.656c-17.701,7.614-35.407,12.369-53.102,14.279c19.985-11.991,33.503-28.931,40.546-50.818
		c-18.281,10.847-37.787,18.268-58.532,22.267c-18.273-19.414-40.729-29.125-67.383-29.125c-25.502,0-47.246,8.992-65.239,26.979
		c-17.984,17.987-26.978,39.731-26.978,65.235c0,6.852,0.76,13.896,2.284,21.128c-37.688-1.902-73.042-11.372-106.068-28.407
		C82.46,110.158,54.433,87.46,31.403,59.101c-8.375,14.272-12.563,29.787-12.563,46.536c0,15.798,3.711,30.456,11.138,43.97
		c7.422,13.513,17.417,24.455,29.98,32.831c-14.85-0.571-28.743-4.475-41.685-11.708v1.143c0,22.271,6.995,41.823,20.983,58.674
		c13.99,16.848,31.645,27.453,52.961,31.833c-7.995,2.091-16.086,3.138-24.27,3.138c-5.329,0-11.136-0.475-17.415-1.42
		c5.899,18.459,16.75,33.633,32.546,45.535c15.799,11.896,33.69,18.028,53.677,18.418c-33.498,26.262-71.66,39.393-114.486,39.393
		c-8.186,0-15.606-0.373-22.27-1.139c42.827,27.596,90.029,41.394,141.611,41.394c32.738,0,63.479-5.181,92.21-15.557
		c28.746-10.369,53.298-24.267,73.665-41.686c20.362-17.415,37.925-37.448,52.674-60.098c14.75-22.65,25.738-46.298,32.978-70.945
		c7.229-24.653,10.848-49.345,10.848-74.093c0-5.33-0.096-9.324-0.287-11.99C421.784,120.202,437.201,104.306,449.955,85.656z"/>
</g>
</svg>
