<?xml version="1.0" encoding="utf-8"?>
<!-- Generator: Adobe Illustrator 16.0.0, SVG Export Plug-In . SVG Version: 6.00 Build 0)  -->
<!DOCTYPE svg PUBLIC "-//W3C//DTD SVG 1.1//EN" "http://www.w3.org/Graphics/SVG/1.1/DTD/svg11.dtd">
<svg version="1.1" id="Calque_1" xmlns="http://www.w3.org/2000/svg" xmlns:xlink="http://www.w3.org/1999/xlink" x="0px" y="0px"
	 width="20px" height="20px" viewBox="0 0 20 20" enable-background="new 0 0 20 20" xml:space="preserve">
<path fill="#A0ACBF" d="M9.996,1c1.391,0,2.52,1.128,2.52,2.52s-1.129,2.52-2.52,2.52c-1.391,0-2.52-1.128-2.52-2.52
	C7.477,2.129,8.604,1.002,9.996,1z M19.17,14.619h-0.922V11.9c0-1.217-0.986-2.203-2.201-2.205h-4.996V7.501
	c-0.69,0.188-1.42,0.188-2.11,0v2.195H3.945C2.729,9.698,1.744,10.684,1.743,11.9v2.719H0.821c-0.45,0.012-0.806,0.386-0.795,0.836
	c0.004,0.156,0.053,0.309,0.141,0.438l1.978,2.772c0.259,0.36,0.762,0.442,1.124,0.185c0.071-0.05,0.133-0.115,0.184-0.185
	l1.988-2.772c0.254-0.373,0.157-0.881-0.215-1.135c-0.13-0.087-0.282-0.137-0.439-0.139H3.855V11.9c0-0.049,0.041-0.09,0.09-0.09
	H8.94v2.809H8.007c-0.451,0.007-0.809,0.378-0.804,0.828c0.002,0.158,0.052,0.313,0.142,0.445l1.996,2.771
	c0.259,0.361,0.761,0.443,1.124,0.186c0.071-0.051,0.135-0.115,0.186-0.186l1.996-2.771c0.254-0.371,0.156-0.879-0.215-1.133
	c-0.132-0.087-0.283-0.137-0.439-0.142h-0.939v-2.808h4.995c0.048,0,0.089,0.039,0.089,0.09l0,0v2.718h-0.929
	c-0.451,0.012-0.808,0.386-0.797,0.836c0.005,0.155,0.054,0.31,0.142,0.438l1.986,2.771c0.259,0.361,0.762,0.443,1.122,0.186
	c0.071-0.051,0.135-0.115,0.187-0.186l1.987-2.771c0.253-0.373,0.153-0.881-0.219-1.133C19.482,14.671,19.328,14.621,19.17,14.619z"
	/>
</svg>
